<svg xmlns:mydata="http://www.w3.org/2000/svg" mydata:contrastcolor="005670" mydata:template="SingleColorHex1" mydata:presentation="2.5" mydata:layouttype="undefined" mydata:specialfontid="undefined" mydata:id1="488" mydata:id2="199" mydata:companyname="Abuz Edu" mydata:companytagline="" version="1.1" xmlns="http://www.w3.org/2000/svg" xmlns:xlink="http://www.w3.org/1999/xlink" viewBox="0 0 550 470"><g fill="#ef3340" fill-rule="nonzero" stroke="none" stroke-width="1" stroke-linecap="butt" stroke-linejoin="miter" stroke-miterlimit="10" stroke-dasharray="" stroke-dashoffset="0" font-family="none" font-weight="none" font-size="none" text-anchor="none" style="mix-blend-mode: normal"><g data-paper-data="{&quot;isGlobalGroup&quot;:true}"><g data-paper-data="{&quot;isPrimaryText&quot;:true}"><path d="M123.30064,260.103v0c0.53175,1.27029 0.56868,2.50365 0.11078,3.70009c-0.4579,1.19644 -1.30722,2.09007 -2.54797,2.6809c-1.27029,0.53175 -2.50365,0.56868 -3.70009,0.11078c-1.19644,-0.4579 -2.09007,-1.30722 -2.6809,-2.54797l-20.11785,-44.26814l-20.11785,44.26814c-0.59083,1.24075 -1.49185,2.09007 -2.70306,2.54797c-1.21121,0.4579 -2.43718,0.42097 -3.67793,-0.11078c-1.24075,-0.59083 -2.09007,-1.48447 -2.54797,-2.6809c-0.4579,-1.19644 -0.42097,-2.4298 0.11078,-3.70009l24.32754,-53.57375c0.3545,-0.79762 0.87148,-1.44754 1.55094,-1.94975c0.08862,-0.08862 0.17725,-0.17725 0.26587,-0.26587c0.02954,0 0.04431,0 0.04431,0v0c0.08862,-0.05908 0.17725,-0.11817 0.26587,-0.17725c0.08862,-0.05908 0.16248,-0.1034 0.22156,-0.13294c0.02954,-0.02954 0.05908,-0.04431 0.08862,-0.04431c0.02954,-0.02954 0.04431,-0.04431 0.04431,-0.04431c0.02954,0 0.05908,-0.01477 0.08862,-0.04431c0.02954,-0.02954 0.07385,-0.04431 0.13294,-0.04431c0,0 0.01477,-0.01477 0.04431,-0.04431c0,0 0.01477,0 0.04431,0c0.02954,0 0.05908,-0.01477 0.08862,-0.04431c0,0 0.01477,0 0.04431,0c0.02954,0 0.04431,-0.01477 0.04431,-0.04431c0.08862,-0.02954 0.16248,-0.04431 0.22156,-0.04431c0.44312,-0.14771 0.91579,-0.22156 1.418,-0.22156c0.50221,0 0.97487,0.07385 1.418,0.22156c0.02954,0 0.04431,0 0.04431,0v0c0.14771,0.05908 0.28065,0.1034 0.39881,0.13294c0,0.02954 0.01477,0.04431 0.04431,0.04431v0c0.02954,0 0.04431,0 0.04431,0c0.02954,0.02954 0.04431,0.04431 0.04431,0.04431c0.11817,0.05908 0.22156,0.11817 0.31019,0.17725c0.02954,0 0.04431,0 0.04431,0c0,0 0.01477,0 0.04431,0c0.26587,0.17725 0.51698,0.36927 0.75331,0.57606c0.62037,0.53175 1.10781,1.16689 1.46231,1.90544zM100.25816,256.8682v0c1.38846,0 2.57012,0.49482 3.545,1.48447c0.97487,0.98964 1.46231,2.1787 1.46231,3.56715c0,1.35892 -0.48744,2.5332 -1.46231,3.52284c-0.97487,0.98964 -2.15654,1.48447 -3.545,1.48447h-11.78711c-1.38846,0 -2.57751,-0.49482 -3.56715,-1.48447c-0.98964,-0.98964 -1.48447,-2.16392 -1.48447,-3.52284c0,-1.38846 0.49482,-2.57751 1.48447,-3.56715c0.98964,-0.98964 2.1787,-1.48447 3.56715,-1.48447z" data-paper-data="{&quot;glyphName&quot;:&quot;A&quot;,&quot;glyphIndex&quot;:0,&quot;firstGlyphOfWord&quot;:true,&quot;word&quot;:1}"></path><path d="M173.01921,231.43285v0c4.16537,1.62479 7.1343,4.06936 8.9068,7.33371c1.7725,3.26435 2.59966,6.52132 2.4815,9.7709c0.05908,1.97929 -0.23633,4.02505 -0.88625,6.13727c-0.64992,2.11223 -1.7208,4.08413 -3.21265,5.91571c-1.49185,1.83158 -3.46376,3.33082 -5.91571,4.49771c-2.45196,1.16689 -5.43566,1.75034 -8.95112,1.75034h-13.5153c-1.35892,0 -2.51842,-0.48744 -3.47853,-1.46231c-0.9601,-0.97487 -1.44015,-2.15654 -1.44015,-3.545c0,-1.35892 0.48005,-2.52581 1.44015,-3.50068c0.9601,-0.97487 2.11961,-1.46231 3.47853,-1.46231c0,0 0.57606,0 1.72819,0c1.15212,0 2.51842,0 4.0989,0c1.58048,0 3.10187,0 4.56418,0c1.46231,0 2.51842,0 3.16834,0c2.45196,0 4.44602,-0.83455 5.98218,-2.50365c1.53617,-1.6691 2.30425,-3.61146 2.30425,-5.82709c0,-2.24516 -0.76808,-4.2023 -2.30425,-5.8714c-1.53617,-1.6691 -3.53023,-2.50365 -5.98218,-2.50365c-0.64992,0 -1.69864,0 -3.14618,0c-1.44754,0 -2.95416,0 -4.51987,0c-0.47267,0.02954 -0.94533,0.04431 -1.418,0.04431v-0.04431c-1.27029,0 -2.33379,0 -3.1905,0c-0.85671,0 -1.28506,0 -1.28506,0c-1.35892,0 -2.51842,-0.48005 -3.47853,-1.44015c-0.9601,-0.9601 -1.44015,-2.13438 -1.44015,-3.52284c0,-1.38846 0.48005,-2.56274 1.44015,-3.52284c0.9601,-0.9601 2.11961,-1.44015 3.47853,-1.44015h5.40612c2.24516,-0.29542 4.03982,-1.23336 5.38396,-2.81384c1.34414,-1.58048 2.01622,-3.41944 2.01622,-5.5169c0,-2.21562 -0.76808,-4.16537 -2.30425,-5.84924c-1.53617,-1.68387 -3.53023,-2.52581 -5.98218,-2.52581c-0.67946,0 -1.83158,0.00739 -3.45637,0.02216c-1.62479,0.01477 -3.27912,0.02216 -4.96299,0.02216c-1.68387,0 -3.02802,0 -4.03243,0c-0.14771,0 -0.26587,0 -0.3545,0l-5.62768,0.04431c-1.38846,0 -2.57751,-0.50959 -3.56715,-1.52878c-0.98964,-1.01919 -1.48447,-2.22301 -1.48447,-3.61146c0,-1.35892 0.48744,-2.52581 1.46231,-3.50068c0.97487,-0.97487 2.15654,-1.46231 3.545,-1.46231h4.91868l13.5153,0.08862c3.51545,0 6.49916,0.57606 8.95112,1.72819c2.45196,1.15212 4.42386,2.64398 5.91571,4.47556c1.49185,1.83158 2.56274,3.81087 3.21265,5.93787c0.64992,2.127 0.94533,4.18014 0.88625,6.15943c0.11817,3.16095 -0.66469,6.33668 -2.34856,9.52718zM137.96806,230.23641v0c1.38846,0 2.57012,0.48005 3.545,1.44015c0.97487,0.9601 1.46231,2.11961 1.46231,3.47853v26.80903c0,1.35892 -0.48744,2.52581 -1.46231,3.50068c-0.97487,0.97487 -2.15654,1.46231 -3.545,1.46231c-1.35892,0 -2.52581,-0.48744 -3.50068,-1.46231c-0.97487,-0.97487 -1.46231,-2.14177 -1.46231,-3.50068v-26.80903c0,-1.35892 0.48744,-2.51842 1.46231,-3.47853c0.97487,-0.9601 2.14177,-1.44015 3.50068,-1.44015z" data-paper-data="{&quot;glyphName&quot;:&quot;B&quot;,&quot;glyphIndex&quot;:1,&quot;word&quot;:1}"></path><path d="M231.3344,203.07288v0c1.38846,0 2.57012,0.48744 3.545,1.46231c0.97487,0.97487 1.46231,2.14177 1.46231,3.50068v53.92825c0,1.35892 -0.48744,2.52581 -1.46231,3.50068c-0.97487,0.97487 -2.15654,1.46231 -3.545,1.46231v0v0h-8.64093c-1.38846,0 -2.57012,-0.48744 -3.545,-1.46231c-0.97487,-0.97487 -1.46231,-2.14177 -1.46231,-3.50068c0,-1.38846 0.48744,-2.57012 1.46231,-3.545c0.97487,-0.97487 2.15654,-1.46231 3.545,-1.46231h3.67793v-48.92095c0,-1.35892 0.48744,-2.52581 1.46231,-3.50068c0.97487,-0.97487 2.14177,-1.46231 3.50068,-1.46231zM207.05117,256.95682v0c1.38846,0 2.57012,0.48744 3.545,1.46231c0.97487,0.97487 1.46231,2.15654 1.46231,3.545c0,1.35892 -0.48744,2.52581 -1.46231,3.50068c-0.97487,0.97487 -2.15654,1.46231 -3.545,1.46231h-8.64093v0v0c-1.38846,0 -2.56274,-0.48744 -3.52284,-1.46231c-0.9601,-0.97487 -1.44015,-2.14177 -1.44015,-3.50068v-53.92825c0,-1.35892 0.48005,-2.52581 1.44015,-3.50068c0.9601,-0.97487 2.13438,-1.46231 3.52284,-1.46231c1.35892,0 2.52581,0.48744 3.50068,1.46231c0.97487,0.97487 1.46231,2.14177 1.46231,3.50068v48.92095z" data-paper-data="{&quot;glyphName&quot;:&quot;U&quot;,&quot;glyphIndex&quot;:2,&quot;word&quot;:1}"></path><path d="M292.79577,256.95682v0c1.38846,0 2.56274,0.48744 3.52284,1.46231c0.9601,0.97487 1.44015,2.15654 1.44015,3.545c0,1.35892 -0.48005,2.52581 -1.44015,3.50068c-0.9601,0.97487 -2.13438,1.46231 -3.52284,1.46231h-41.83095c-0.23633,0 -0.4579,-0.01477 -0.66469,-0.04431c-1.09304,-0.02954 -2.08269,-0.38404 -2.96893,-1.0635c-1.09304,-0.91579 -1.7208,-2.03099 -1.88328,-3.34559c-0.16248,-1.3146 0.18464,-2.5332 1.04134,-3.65578l18.74417,-23.75147l6.38099,-8.06487l17.28186,-21.89035c0.88625,-1.09304 1.98667,-1.71341 3.30128,-1.86112c1.3146,-0.14771 2.54797,0.19202 3.70009,1.01919c1.0635,0.91579 1.67649,2.03099 1.83897,3.34559c0.16248,1.3146 -0.18464,2.5332 -1.04134,3.65578l-18.74417,23.79579l-6.33668,8.02055l-10.98949,13.8698zM250.43306,213.26474v0c-1.38846,0 -2.57012,-0.49482 -3.545,-1.48447c-0.97487,-0.98964 -1.46231,-2.1787 -1.46231,-3.56715c0,-1.35892 0.48744,-2.5332 1.46231,-3.52284c0.97487,-0.98964 2.15654,-1.48447 3.545,-1.48447h11.78711c1.38846,0 2.57751,0.49482 3.56715,1.48447c0.98964,0.98964 1.48447,2.16392 1.48447,3.52284c0,1.38846 -0.49482,2.57751 -1.48447,3.56715c-0.98964,0.98964 -2.1787,1.48447 -3.56715,1.48447z" data-paper-data="{&quot;glyphName&quot;:&quot;Z&quot;,&quot;glyphIndex&quot;:3,&quot;lastGlyphOfWord&quot;:true,&quot;word&quot;:1}"></path><path d="M366.68664,215.24245v0c1.62252,0 3.00166,-0.56788 4.13742,-1.70365c1.13576,-1.13576 1.70365,-2.5149 1.70365,-4.13742c0,-1.59302 -0.56788,-2.96478 -1.70365,-4.1153c-1.13576,-1.15051 -2.5149,-1.72577 -4.13742,-1.72577h-31.86037c-1.59302,0 -2.96478,0.57526 -4.1153,1.72577c-1.15051,1.15051 -1.72577,2.52228 -1.72577,4.1153c0,1.62252 0.57526,3.00166 1.72577,4.13742c1.15051,1.13576 2.52228,1.70365 4.1153,1.70365zM334.82627,205.72859v0h31.86037c1.03251,0 1.91015,0.36138 2.63291,1.08414c0.72276,0.72276 1.08414,1.58564 1.08414,2.58866c0,1.03251 -0.36138,1.91015 -1.08414,2.63291c-0.72276,0.72276 -1.60039,1.08414 -2.63291,1.08414h-31.86037c-1.00301,0 -1.8659,-0.36138 -2.58866,-1.08414c-0.72276,-0.72276 -1.08414,-1.60039 -1.08414,-2.63291c0,-1.00301 0.36138,-1.8659 1.08414,-2.58866c0.72276,-0.72276 1.58564,-1.08414 2.58866,-1.08414zM366.68664,266.88281v0c1.62252,0 3.00166,-0.56788 4.13742,-1.70365c1.13576,-1.13576 1.70365,-2.5149 1.70365,-4.13742c0,-1.62252 -0.56788,-3.00166 -1.70365,-4.13742c-1.13576,-1.13576 -2.5149,-1.70365 -4.13742,-1.70365h-25.8423v-14.29292h5.48706c1.62252,0 3.01641,-0.57526 4.18167,-1.72577c1.16526,-1.15051 1.7479,-2.53703 1.7479,-4.15955c0,-1.65202 -0.58263,-3.05329 -1.7479,-4.2038c-1.16526,-1.15051 -2.55916,-1.72577 -4.18167,-1.72577h-11.41663c-1.62252,0 -3.01641,0.57526 -4.18167,1.72577c-1.16526,1.15051 -1.7479,2.55178 -1.7479,4.2038c0,0.0295 0,0.04425 0,0.04425c0,0.0295 0,0.059 0,0.0885v25.7538c0,0 0,0.01475 0,0.04425c0,0.0295 0,0.059 0,0.0885c0,1.62252 0.57526,3.00166 1.72577,4.13742c1.15051,1.13576 2.52228,1.70365 4.1153,1.70365zM334.91477,231.21689v0h11.41663c1.03251,0 1.91752,0.36875 2.65503,1.10626c0.73751,0.73751 1.10626,1.63727 1.10626,2.69928c0,1.03251 -0.36875,1.91752 -1.10626,2.65503c-0.73751,0.73751 -1.62252,1.10626 -2.65503,1.10626h-6.54908c-0.295,0 -0.54576,0.10325 -0.75226,0.30975c-0.2065,0.2065 -0.30975,0.45726 -0.30975,0.75226v16.41694c0,0.295 0.10325,0.54576 0.30975,0.75226c0.2065,0.2065 0.45726,0.30975 0.75226,0.30975h26.90432c1.03251,0 1.91015,0.36875 2.63291,1.10626c0.72276,0.73751 1.08414,1.60777 1.08414,2.61078c0,1.03251 -0.36138,1.91015 -1.08414,2.63291c-0.72276,0.72276 -1.60039,1.08414 -2.63291,1.08414h-31.86037c-1.00301,0 -1.85852,-0.354 -2.56653,-1.06201c-0.70801,-0.70801 -1.07676,-1.59302 -1.10626,-2.65503v-0.04425c0,-0.0295 0,-0.04425 0,-0.04425v-0.04425v-25.7538v-0.04425c0,-0.0295 0,-0.04425 0,-0.04425v-0.04425c0,-1.06201 0.36875,-1.96177 1.10626,-2.69928c0.73751,-0.73751 1.62252,-1.10626 2.65503,-1.10626z" data-paper-data="{&quot;glyphName&quot;:&quot;E&quot;,&quot;glyphIndex&quot;:4,&quot;firstGlyphOfWord&quot;:true,&quot;fontStyleEffect&quot;:true,&quot;word&quot;:2}"></path><path d="M401.3951,266.92712v0c0.50116,0 1.00232,-0.01474 1.50348,-0.04422h0.4422c0.38324,0 0.76648,-0.02948 1.14972,-0.08844c8.01854,-0.8844 14.78418,-4.28933 20.29692,-10.21479c5.54222,-6.3087 8.31334,-13.44284 8.31334,-21.40242c0,-5.80754 -1.42978,-11.11393 -4.28933,-15.91916c-2.85955,-4.80523 -6.69194,-8.63762 -11.49717,-11.49717c-4.80523,-2.85955 -10.11161,-4.28933 -15.91916,-4.28933c-3.33123,0 -6.40451,-0.00737 -9.21984,-0.02211c-2.81533,-0.01474 -4.3704,-0.02211 -4.6652,-0.02211v0c-0.08844,0 -0.16214,0.01474 -0.2211,0.04422h-0.57486c-1.6214,0 -3.00695,0.56749 -4.15667,1.70247c-1.14972,1.13498 -1.72458,2.51316 -1.72458,4.13456c0,1.6214 0.57486,2.99958 1.72458,4.13456c1.14972,1.13498 2.53527,1.70247 4.15667,1.70247h14.681c3.65551,0 6.99411,0.90651 10.0158,2.71952c3.02169,1.81301 5.4243,4.23037 7.20784,7.25206c1.78354,3.02169 2.6753,6.37503 2.6753,10.06002c0,3.68499 -0.89177,7.03096 -2.6753,10.03791c-1.78354,3.00695 -4.18615,5.40957 -7.20784,7.20784c-3.02169,1.79828 -6.36029,2.69741 -10.0158,2.69741c-1.20868,0 -2.60897,0.00737 -4.20089,0.02211c-1.59192,0.01474 -3.12487,0.02211 -4.59887,0.02211v-20.07582c0,-1.6214 -0.57486,-3.00695 -1.72458,-4.15667c-1.14972,-1.14972 -2.53527,-1.72458 -4.15667,-1.72458c-1.6214,0 -3.00695,0.57486 -4.15667,1.72458c-1.14972,1.14972 -1.72458,2.53527 -1.72458,4.15667v25.82441c0,0.02948 0,0.05896 0,0.08844c0,0 0,0.01474 0,0.04422c0,1.6214 0.57486,2.99958 1.72458,4.13456c1.14972,1.13498 2.53527,1.70247 4.15667,1.70247h0.79596c0,0 0.01474,0 0.04422,0c0.50116,0 2.13729,0.00737 4.90841,0.02211c2.77111,0.01474 5.74858,0.02211 8.93242,0.02211zM386.7141,231.37434v0c1.0318,0 1.91619,0.36113 2.65319,1.08339c0.737,0.72226 1.1055,1.59929 1.1055,2.63108v21.1371c0,0.2948 0.10318,0.56012 0.30954,0.79596c0.20636,0.20636 0.45694,0.30954 0.75174,0.30954c1.56244,-0.02948 3.25753,-0.04422 5.08529,-0.04422c1.82775,0 3.41967,0 4.77575,0c4.03875,0 7.73111,-0.99495 11.07708,-2.98484c3.34597,-1.98989 6.0139,-4.65783 8.0038,-8.0038c1.98989,-3.34597 2.98484,-7.05307 2.98484,-11.1213c0,-4.06823 -0.99495,-7.7827 -2.98484,-11.14341c-1.98989,-3.36071 -4.65783,-6.03601 -8.0038,-8.02591c-3.34597,-1.98989 -7.03833,-2.98484 -11.07708,-2.98484h-14.681c-1.0318,0 -1.90882,-0.36113 -2.63108,-1.08339c-0.72226,-0.72226 -1.08339,-1.59929 -1.08339,-2.63108c0,-1.0318 0.36113,-1.90882 1.08339,-2.63108c0.72226,-0.72226 1.58455,-1.08339 2.58686,-1.08339h0.84018c0.05896,0.02948 0.13266,0.02948 0.2211,0c0.76648,0 2.47631,0 5.12951,0c2.65319,0 5.498,0 8.53444,0c5.4243,0 10.37693,1.33397 14.85788,4.0019c4.48095,2.66793 8.05539,6.24237 10.72332,10.72332c2.66793,4.48095 4.0019,9.43357 4.0019,14.85788c0,5.12951 -1.17183,9.83155 -3.51548,14.10614c-2.34365,4.27459 -5.52011,7.76796 -9.52938,10.48011c-4.00927,2.71215 -8.57866,4.33355 -13.70816,4.86419c-0.02948,0.02948 -0.0737,0.04422 -0.13266,0.04422c-0.23584,0.05896 -0.48642,0.08844 -0.75174,0.08844h-0.4422c-0.02948,0 -0.04422,0 -0.04422,0c-0.50116,0 -0.98758,0 -1.45926,0c-3.24279,0 -6.27185,0 -9.08718,0c-2.81533,0 -4.41462,0 -4.79786,0v0h-0.79596c-1.0318,0 -1.90145,-0.35376 -2.60897,-1.06128c-0.70752,-0.70752 -1.07602,-1.59192 -1.1055,-2.65319v-0.04422c0,0 0,-0.01474 0,-0.04422v-25.86863c0,-1.0318 0.36113,-1.90882 1.08339,-2.63108c0.72226,-0.72226 1.59929,-1.08339 2.63108,-1.08339z" data-paper-data="{&quot;glyphName&quot;:&quot;D&quot;,&quot;glyphIndex&quot;:5,&quot;fontStyleEffect&quot;:true,&quot;word&quot;:2}"></path><path d="M479.11869,266.92712v0c1.62141,0 3.00699,-0.57487 4.15672,-1.7246c1.14973,-1.14973 1.7246,-2.5353 1.7246,-4.15672v-52.09162c0,-1.62141 -0.57487,-3.00699 -1.7246,-4.15672c-1.14973,-1.14973 -2.5353,-1.7246 -4.15672,-1.7246c-1.62141,0 -3.00699,0.57487 -4.15672,1.7246c-1.14973,1.14973 -1.7246,2.5353 -1.7246,4.15672v46.21031h-2.47634c-1.62141,0 -3.00699,0.57487 -4.15672,1.7246c-1.14973,1.14973 -1.7246,2.5353 -1.7246,4.15672c0,1.62141 0.57487,3.00699 1.7246,4.15672c1.14973,1.14973 2.5353,1.7246 4.15672,1.7246zM470.76103,257.28708v0h3.58185c0.2948,0 0.54538,-0.10318 0.75175,-0.30954c0.20636,-0.20636 0.30954,-0.45694 0.30954,-0.75175v-47.2716c0,-1.03181 0.36113,-1.90885 1.0834,-2.63111c0.72227,-0.72227 1.5993,-1.0834 2.63111,-1.0834c1.03181,0 1.91622,0.36113 2.65322,1.0834c0.73701,0.72227 1.10551,1.5993 1.10551,2.63111v52.09162c0,1.03181 -0.3685,1.90885 -1.10551,2.63111c-0.73701,0.72227 -1.62141,1.0834 -2.65322,1.0834h-8.35765c-1.03181,0 -1.90885,-0.36113 -2.63111,-1.0834c-0.72227,-0.72227 -1.0834,-1.5993 -1.0834,-2.63111c0,-1.03181 0.36113,-1.91622 1.0834,-2.65322c0.72227,-0.73701 1.5993,-1.10551 2.63111,-1.10551zM455.68188,266.92712v0c1.62141,0 3.00699,-0.57487 4.15672,-1.7246c1.14973,-1.14973 1.7246,-2.5353 1.7246,-4.15672c0,-1.62141 -0.57487,-3.00699 -1.7246,-4.15672c-1.14973,-1.14973 -2.5353,-1.7246 -4.15672,-1.7246h-2.47634v-46.21031c0,-1.62141 -0.57487,-3.00699 -1.7246,-4.15672c-1.14973,-1.14973 -2.5353,-1.7246 -4.15672,-1.7246c-1.62141,0 -3.00699,0.57487 -4.15672,1.7246c-1.14973,1.14973 -1.7246,2.5353 -1.7246,4.15672v52.09162c0,1.62141 0.57487,3.00699 1.7246,4.15672c1.14973,1.14973 2.5353,1.7246 4.15672,1.7246zM447.32423,205.23968v0c1.03181,0 1.90885,0.36113 2.63111,1.0834c0.72227,0.72227 1.0834,1.5993 1.0834,2.63111v47.2716c0,0.2948 0.10318,0.54538 0.30954,0.75175c0.20636,0.20636 0.47168,0.30954 0.79597,0.30954h3.53763c1.03181,0 1.91622,0.3685 2.65322,1.10551c0.73701,0.73701 1.10551,1.62141 1.10551,2.65322c0,1.03181 -0.3685,1.90885 -1.10551,2.63111c-0.73701,0.72227 -1.62141,1.0834 -2.65322,1.0834h-8.35765c-1.03181,0 -1.91622,-0.36113 -2.65322,-1.0834c-0.73701,-0.72227 -1.10551,-1.5993 -1.10551,-2.63111v-52.09162c0,-1.03181 0.3685,-1.90885 1.10551,-2.63111c0.73701,-0.72227 1.62141,-1.0834 2.65322,-1.0834z" data-paper-data="{&quot;glyphName&quot;:&quot;U&quot;,&quot;glyphIndex&quot;:6,&quot;lastGlyphOfWord&quot;:true,&quot;fontStyleEffect&quot;:true,&quot;word&quot;:2}"></path></g></g></g></svg>